<svg id="Capa_1" enable-background="new 0 0 512 512" height="512" viewBox="0 0 512 512" width="512" xmlns="http://www.w3.org/2000/svg"><g><path d="m483.335 98.066 16.893-86.216-88.169 15.58c-35.073-20.485-76.447-29.995-117.179-26.836-40.288 3.126-77.82 17.877-109.191 42.793-103.592 8.083-185.413 94.96-185.413 200.591 0 46.135 16.012 91.212 45.086 126.927 27.359 33.608 65.117 57.658 106.857 68.187l49.02 72.908 51.327-73.361c27.064-7.098 52.417-19.91 74.273-37.311l.034.416c47.481-3.847 92.207-24.542 125.937-58.272 32.623-32.622 53.175-75.818 57.871-121.631 4.417-43.111-5.276-86.816-27.346-123.775zm-243.202 312.743-5.616 1.295-32.786 46.86-31.251-46.483-5.876-1.29c-37.5-8.23-71.584-29.265-95.976-59.227-24.731-30.381-38.352-68.731-38.352-107.988 0-94.404 76.804-171.208 171.208-171.208s171.208 76.804 171.208 171.208c0 39.508-13.071 76.617-37.8 107.316-24.025 29.828-57.678 50.964-94.759 59.517zm240.703-192.028c-3.995 38.97-21.481 75.719-49.24 103.478-19.383 19.382-43.032 33.697-68.785 41.963 25.764-34.564 39.882-76.968 39.882-120.244 0-98.528-71.189-180.734-164.831-197.905 18.474-8.666 38.471-13.95 59.338-15.569 36.341-2.817 73.265 6.2 103.972 25.396l4.887 3.055 56.319-9.952-10.77 54.966 3.243 5.067c20.696 32.336 29.924 71.311 25.985 109.745z"/><path d="m209.367 178.589-9.155 9.155-9.155-9.155c-12.88-12.88-30.005-19.974-48.22-19.974s-35.34 7.093-48.22 19.973-19.974 30.005-19.974 48.221 7.094 35.34 19.974 48.221l105.596 105.596 105.595-105.596c26.588-26.589 26.588-69.853 0-96.441-26.589-26.589-69.852-26.589-96.441 0zm75.229 75.228-84.383 84.382-84.383-84.382c-7.214-7.214-11.187-16.806-11.187-27.008s3.973-19.793 11.187-27.007 16.805-11.187 27.007-11.187 19.793 3.973 27.007 11.187l30.368 30.367 30.368-30.367c14.891-14.892 39.122-14.893 54.015 0 14.892 14.892 14.892 39.123.001 54.015z"/></g></svg>