<?xml version="1.0" encoding="iso-8859-1"?>
<!-- Generator: Adobe Illustrator 19.0.0, SVG Export Plug-In . SVG Version: 6.00 Build 0)  -->
<svg version="1.1" id="Capa_1" xmlns="http://www.w3.org/2000/svg" xmlns:xlink="http://www.w3.org/1999/xlink" x="0px" y="0px"
	 viewBox="0 0 512.009 512.009" style="enable-background:new 0 0 512.009 512.009;" xml:space="preserve">
<g transform="translate(-1)">
	<g>
		<g>
			<path d="M72.02,190.027c-3.448,3.204-3.65,8.595-0.452,12.048c7.721,8.304,27.754,34.646,27.754,56.513
				c-0.194,7.352-5.685,13.48-12.971,14.479c-4.204-0.848-8.051-2.952-11.034-6.033c-2.149-2.188-5.307-3.055-8.271-2.27
				c-2.965,0.785-5.28,3.1-6.065,6.065c-0.785,2.965,0.082,6.122,2.27,8.271c6.169,6.271,14.345,10.176,23.1,11.034
				c16.799-0.874,29.987-14.724,30.037-31.546c0-32.983-31-66.713-32.321-68.129C80.859,187.016,75.468,186.823,72.02,190.027z"/>
			<path d="M267.073,0c-1.385,0-3.161,0.023-5.151,0.069C178.655,1.499,29.664,37.944,29.664,168.567
				c0.024,4.148-0.523,8.28-1.625,12.279c-3.464,11.395-0.222,23.77,8.383,32.004c4.438,4.06,7.04,9.745,7.212,15.758
				c-8.634,4.872-17.942,8.437-27.621,10.579c-3.797,0.953-6.46,4.365-6.462,8.279V281.6c0,6.912,5.55,12.912,13.954,21.996
				c9.238,8.985,16.934,19.431,22.779,30.916c1.503,3.399,0.238,7.385-2.95,9.296c-2.769,2.053-6.658,1.593-8.871-1.05
				c-2.06-2.19-5.12-3.135-8.055-2.487c-2.936,0.648-5.314,2.792-6.261,5.646l-6.246,18.833
				c-3.374,10.245,0.477,21.485,9.425,27.508c14.287,9.54,30.523,15.771,47.525,18.238l12.821,1.841
				c23.158,3.349,46.786-0.501,67.683-11.029l0.852-0.428l-1.06,12.866c-0.907,10.345-8.701,18.765-18.946,20.467l-31.675,5.362
				c-1.776,0.279-3.584,0.301-5.367,0.062l-55.192-7.917c-5.073-0.782-10.235,0.691-14.13,4.034
				c-3.895,3.343-6.136,8.221-6.133,13.354v13.654c0.01,1.514-0.594,2.968-1.675,4.029l-1.888,1.883
				c-5.155,5.186-7.508,12.531-6.327,19.747c1.181,7.216,5.754,13.427,12.294,16.699c2.448,1.212,5.097,1.966,7.817,2.225
				l26.483,2.733c13.004,1.288,25.981,1.931,38.929,1.929c34.772,0.005,69.388-4.654,102.921-13.854l3.338-0.879
				c26.099-7.28,44.154-31.054,44.159-58.15c-0.013-24.301,8.239-47.884,23.4-66.875l21.413-26.892
				c0.839,1.648,1.631,3.367,2.367,5.17c0.332,0.813,0.709,1.607,1.011,2.434c1.178,3.196,2.122,6.475,2.822,9.809
				c3.274,14.636,14.083,26.429,28.379,30.963l0.163,0.043l0.099,0.04c0.093,0.031,0.179,0.028,0.272,0.058
				c7.053,2.278,14.571,2.717,21.841,1.275c5.096-1.024,10.129-2.295,15.127-3.675c1.445-0.397,2.883-0.81,4.315-1.237
				c4.445-1.326,8.849-2.757,13.188-4.356c0.984-0.362,1.961-0.737,2.94-1.113c4.237-1.63,8.399-3.413,12.509-5.296
				c1.382-0.634,2.756-1.282,4.124-1.942c4.617-2.235,9.173-4.573,13.591-7.119l0.015-0.008l0.006-0.005
				c6.629-3.815,13.04-7.998,19.202-12.528l0.292-0.221l0.233-0.162c2.4-1.771,4.608-3.493,6.88-5.231
				c1.438-1.1,2.966-2.223,4.353-3.309l0.193-0.147c1.954-1.533,3.72-3.014,5.568-4.517c1.551-1.261,3.191-2.547,4.668-3.788
				c2.084-1.751,3.966-3.443,5.898-5.149c1.109-0.98,2.321-1.99,3.38-2.955c2.909-2.651,5.623-5.241,8.143-7.771
				c1.805-1.846,3.498-3.798,5.07-5.845c0.115-0.147,0.228-0.277,0.342-0.427c1.696-2.21,3.376-4.671,5.029-7.322l0.203-0.322
				c14.465-24.935,21.958-53.301,21.694-82.126C504.485,149.517,454.864,0,267.073,0z M143.689,386.059
				c-17.779,8.964-37.886,12.242-57.591,9.388l-12.821-1.842c-14.471-2.101-28.29-7.404-40.45-15.525
				c-2.586-1.741-3.699-4.989-2.725-7.95l2.934-8.833c6.698,1.875,13.882,0.705,19.637-3.2c10.158-6.417,14.11-19.288,9.304-30.3
				c-6.586-13.297-15.355-25.395-25.941-35.792c-3.447-3.45-6.597-7.184-9.417-11.163v-26.817
				c34.133-9.692,34.133-20.079,34.133-23.625c0.243-11.38-4.389-22.321-12.729-30.067c-3.883-3.891-5.257-9.63-3.558-14.858
				c1.528-5.505,2.291-11.195,2.267-16.908c0-104.389,105.924-136.831,170.889-146.925l-7.756,93.521
				c-0.512,6.18-3.187,11.981-7.554,16.383l-0.813,0.817c-8.111,8.114-12.652,19.127-12.617,30.6v3.926l-16.913,2.428
				c-4.636,0.663-9.133,2.074-13.317,4.179l-28.479,14.313c-0.617-1.643-1.306-3.26-1.821-4.937l-2.021-44.697
				c-0.011-0.248-0.131-0.458-0.163-0.7c-0.068-0.483-0.179-0.96-0.332-1.423c-0.472-1.561-1.4-2.946-2.665-3.976
				c-0.353-0.302-0.73-0.573-1.129-0.811c-0.538-0.299-1.108-0.537-1.698-0.71c-0.283-0.139-0.574-0.26-0.871-0.364
				c-0.167-0.032-0.323,0.025-0.49,0.003c-0.185-0.027-0.342-0.127-0.531-0.141c-0.475,0.011-0.947,0.062-1.413,0.154
				c-0.432,0.014-0.862,0.061-1.286,0.141c-0.984,0.358-1.94,0.789-2.86,1.29c-0.564,0.433-1.072,0.935-1.509,1.495
				c-0.247,0.237-0.479,0.49-0.694,0.756c-0.586,0.888-0.999,1.878-1.219,2.919l-0.036,0.086c-0.1,0.507-0.113,1.016-0.206,1.523
				c-5.148,26.942,0.765,54.823,16.406,77.356c0.738,1.101,1.46,2.216,2.233,3.28c0.931,1.259,1.893,2.491,2.884,3.711
				c2.04,2.571,4.208,5.038,6.496,7.391c0.156,0.158,0.28,0.339,0.437,0.497c0.334,0.367,0.611,0.783,0.819,1.234
				c0.094,0.14,0.18,0.286,0.259,0.435c0.231,0.576,0.353,1.191,0.359,1.812l0.005,0.031l0.001,0.013
				c0.021,2.674,0.234,5.343,0.636,7.986c0.079,0.552,0.146,1.102,0.241,1.649c0.42,2.417,0.999,4.804,1.732,7.146
				c0.204,0.654,0.444,1.288,0.671,1.932c0.707,2.015,1.527,3.988,2.458,5.91c0.318,0.653,0.647,1.292,0.989,1.931
				c0.976,1.808,2.05,3.563,3.215,5.255c0.436,0.636,0.858,1.273,1.32,1.891c1.407,1.883,2.929,3.678,4.557,5.374
				c0.383,0.397,0.778,0.776,1.173,1.162c9.38,9.333,21.768,15.034,34.958,16.089l52.783,4.084c2.534,0.158,4.725,1.822,5.558,4.221
				c0.536,1.504,0.531,3.148-0.014,4.649c-0.029,0.086-0.097,0.146-0.124,0.234l-0.028,0.1c-0.29,0.605-0.669,1.162-1.125,1.654
				c-0.122,0.126-0.186,0.216-0.356,0.387l-1.438,1.508l-1.841,1.85c-3.708,3.666-8.615,5.87-13.819,6.204
				c-0.864,0.135-1.736,0.217-2.61,0.245c-0.43-0.019-0.855-0.195-1.285-0.24c-1.614-0.121-3.209-0.42-4.757-0.892
				c-0.579-0.194-1.191-0.238-1.778-0.404c-8.627-2.462-17.844-1.828-26.052,1.793c-0.628,0.274-1.299,0.423-1.912,0.732
				l-0.041,0.02l-0.001,0l-2.719,1.366l-6.074,3.052l-9.361,4.702l-0.01,0.008l-50.153,25.205c-4.206,2.12-5.9,7.246-3.785,11.455
				c2.116,4.208,7.241,5.907,11.451,3.795l42.823-21.523l3.293,5.965c0.643,1.17,1.137,2.416,1.472,3.708
				c0.04,0.155,0.061,0.314,0.097,0.469c0.236,1.047,0.363,2.115,0.379,3.189c0.004,0.301,0.015,0.601,0.001,0.903
				c-0.046,1.013-0.191,2.019-0.435,3.004c-0.058,0.241-0.077,0.485-0.147,0.725c-0.358,1.22-0.862,2.392-1.503,3.49
				c-0.085,0.146-0.196,0.272-0.285,0.416c-0.667,1.05-1.455,2.018-2.347,2.885c-0.167,0.162-0.328,0.329-0.503,0.484
				c-0.933,0.828-1.956,1.549-3.048,2.151c-0.108,0.057-0.196,0.139-0.306,0.194L143.689,386.059z M206.324,203.439l0.141,0.128
				l-13.542,10.208c-8.793,6.68-13.967,17.078-13.992,28.121v27.9c-1.269-0.617-2.504-1.302-3.699-2.052
				c-0.598-0.367-1.21-0.708-1.787-1.105c-0.967-0.656-1.88-1.374-2.778-2.108c-0.926-0.767-1.816-1.574-2.669-2.42
				c-0.6-0.59-1.215-1.165-1.775-1.791c-1.432-1.587-2.734-3.287-3.894-5.083c-0.065-0.102-0.11-0.216-0.174-0.319
				c-1.089-1.775-2.037-3.632-2.835-5.556c-0.234-0.557-0.429-1.132-0.638-1.701c-0.578-1.579-1.053-3.194-1.423-4.835
				c-0.14-0.619-0.299-1.231-0.41-1.86c-0.417-2.246-0.637-4.525-0.656-6.81l-0.015-0.152c0.02-5.698-2.219-11.172-6.227-15.223
				c-1.026-1.024-1.935-2.203-2.911-3.293c-1.245-1.378-2.523-2.731-3.669-4.175c-2.042-2.62-3.934-5.355-5.665-8.191l28.612-14.379
				c2.536-1.278,5.264-2.135,8.075-2.538l17.442-2.504c0.088,0.232,0.246,0.428,0.338,0.658c1.056,2.688,2.377,5.263,3.945,7.688
				l0.942,1.421c1.265,1.896,2.68,3.688,4.232,5.357c0.229,0.247,0.5,0.449,0.734,0.691
				C203.369,200.921,204.805,202.23,206.324,203.439z M255.819,361.604c-17.574,22.015-27.14,49.352-27.129,77.521
				c0.02,19.385-12.865,36.415-31.525,41.667l-3.329,0.879c-44.149,12.12-90.154,15.994-135.708,11.429l-26.475-2.733
				c-0.66-0.048-1.305-0.22-1.9-0.508c-1.653-0.82-2.807-2.39-3.096-4.212c-0.304-1.787,0.275-3.611,1.554-4.896l1.887-1.887
				c4.284-4.261,6.687-10.058,6.675-16.1l0.667-14.167l55.417,7.95c3.471,0.465,6.992,0.42,10.45-0.133l31.75-5.375
				c17.927-3.005,31.545-17.765,33.1-35.875l1.913-23.217l8.708-4.388c1.68-0.891,3.282-1.919,4.792-3.075
				c0.597-0.443,1.154-0.916,1.717-1.396c0.906-0.784,1.77-1.615,2.586-2.492c0.509-0.543,1.047-1.05,1.517-1.627
				c1.018-1.235,1.945-2.544,2.772-3.915c0.093-0.157,0.156-0.327,0.246-0.485c0.281-0.491,0.514-1.007,0.769-1.515
				c0.665-1.316,1.239-2.675,1.719-4.069c0.122-0.354,0.321-0.664,0.432-1.023c0.051-0.163,0.053-0.33,0.101-0.494
				c0.471-1.645,0.812-3.324,1.021-5.022c0.111-0.845,0.156-1.682,0.199-2.528c0.047-0.982,0.037-1.961-0.003-2.944
				c-0.052-1.348-0.189-2.691-0.411-4.022c-0.176-1.063-0.373-2.12-0.654-3.165c-0.229-0.843-0.495-1.668-0.793-2.495
				c-0.439-1.22-0.951-2.412-1.532-3.571c-0.209-0.42-0.321-0.868-0.549-1.281l-2.996-5.417l10.21-5.132
				c0.319-0.16,0.662-0.237,0.986-0.381c4.546-2.006,9.642-2.396,14.441-1.103c0.428,0.116,0.864,0.154,1.288,0.296
				c14.037,4.669,29.507,1.002,39.954-9.471l1.735-1.741l0.007-0.005l0.046-0.048l1.654-1.66c0.558-0.567,1.086-1.151,1.583-1.754
				l2.27,0.57l0.092,0.055c0.108,0.065,0.222,0.119,0.333,0.179c0.977,0.566,2.641,1.631,4.712,3.134
				c1.283,0.959,2.661,2.021,4.255,3.416c1.061,0.92,2.177,1.966,3.239,2.961c0.476,0.458,0.951,0.927,1.434,1.418
				c0.302,0.313,0.625,0.653,1.04,1.108c0.521,0.521,0.992,1.042,1.562,1.675L255.819,361.604z M292.938,318.697
				c-4.339-4.836-9.19-9.186-14.47-12.972l-0.332-0.251l-0.535-0.367c-0.249-0.173-0.516-0.369-0.754-0.531
				c-0.331-0.232-0.7-0.488-0.832-0.577c-0.361-0.242-0.685-0.422-1.025-0.641c-0.33-0.21-0.618-0.39-0.913-0.572
				c-0.251-0.151-0.51-0.337-0.766-0.479l-0.25-0.137c-0.396-0.233-0.703-0.41-0.997-0.573l-0.594-0.357
				c-0.069-0.041-0.152-0.053-0.222-0.092l-0.341-0.179c-0.292-0.127-0.591-0.238-0.895-0.332c-0.277-0.133-0.561-0.25-0.851-0.352
				l-2.29-0.573c-0.148-2.341-0.639-4.649-1.456-6.848c-3.137-8.645-11.065-14.637-20.238-15.296l-49.18-3.804l0-31.871
				c0.011-5.691,2.675-11.051,7.204-14.496l20.807-15.684c6.029,1.334,12.277,1.341,18.309,0.022l46.158-10.313
				c9.397-2.096,19.181,1.184,25.416,8.52l37.342,43.788c4.4,5.171,6.816,11.739,6.817,18.529c-0.007,1.88-0.146,3.757-0.415,5.617
				c-0.056,0.407-0.157,0.802-0.225,1.206c-0.25,1.512-0.586,3.008-1.007,4.482c-0.09,0.312-0.196,0.618-0.293,0.927
				c-0.517,1.65-1.139,3.265-1.86,4.836l-0.139,0.305c-0.838,1.772-1.799,3.482-2.877,5.119l-0.001,0.002
				c-1.429,2.147-3.054,4.157-4.854,6.005c-0.205,0.209-0.417,0.41-0.626,0.614c-1.749,1.755-3.661,3.34-5.711,4.733
				c-4.384,2.944-9.306,4.994-14.483,6.033L292.938,318.697z M397.11,359.762c-2.459,1.278-4.961,2.469-7.473,3.642
				c-2.377,1.108-4.777,2.171-7.198,3.188c-2.53,1.061-5.068,2.106-7.645,3.063c-1.739,0.647-3.501,1.24-5.259,1.841
				c-2.506,0.852-5.03,1.658-7.573,2.418c-0.845,0.252-1.692,0.498-2.54,0.739c-0.741,0.209-1.476,0.435-2.22,0.636
				c-3.473,0.939-6.98,1.788-10.519,2.549c-0.602,0.129-1.196,0.289-1.799,0.413h-8.527c-1.069,0-1.93-0.056-2.744-0.131
				c-1.042-0.149-2.074-0.357-3.093-0.624h0c-8.921-3.188-15.536-10.796-17.451-20.074c-0.086-0.375-0.245-0.721-0.336-1.094
				c-1.879-7.837-4.846-15.373-8.814-22.388l-0.017-0.035l25.021-5.029c7.37-1.479,14.376-4.397,20.617-8.588
				c2.07-1.394,4.048-2.921,5.92-4.571c0.163-0.144,0.306-0.313,0.467-0.458c1.743-1.562,3.389-3.229,4.93-4.991l28.399,14.274
				l9.724,34.205C398.353,359.079,397.741,359.434,397.11,359.762z M483.827,261.057l-0.218,1c-0.699,3.181-1.469,6.283-2.322,9.264
				l-0.055,0.18c-2.294,8.071-5.355,15.904-9.139,23.393c-0.316,0.614-0.62,1.263-0.94,1.857c-0.859,1.605-1.735,3.077-2.615,4.521
				c-0.687,1.119-1.378,2.202-2.078,3.228c-0.672,0.995-1.344,1.985-2.018,2.88c-1.351,1.826-2.819,3.563-4.394,5.199
				c-4.74,4.765-10.265,9.791-16.524,15.041c-0.823,0.69-1.759,1.415-2.608,2.113c-2.365,1.946-4.731,3.892-7.29,5.896
				c-1.403,1.097-2.953,2.238-4.412,3.352c-2.126,1.623-4.202,3.231-6.447,4.887c-2.798,2.06-5.658,4.047-8.578,5.961l-5.631-19.809
				l-2.835-9.975l12.287-18.525c15.371-23.125,37.989-40.49,64.3-49.367l3.325-1.117
				C485.135,254.47,484.519,257.806,483.827,261.057z M476.889,235.971c-29.912,10.091-55.625,29.829-73.104,56.117l-10.274,15.489
				l-23.433-11.778c0.105-0.235,0.176-0.482,0.278-0.719c0.552-1.286,1.056-2.586,1.514-3.913c0.295-0.846,0.555-1.699,0.81-2.557
				c0.332-1.131,0.659-2.259,0.923-3.413c0.281-1.213,0.483-2.44,0.685-3.669c0.143-0.886,0.322-1.759,0.424-2.655
				c0.263-2.193,0.399-4.4,0.407-6.609c-0.001-10.848-3.863-21.341-10.896-29.6l-37.346-43.792
				c-10.333-12.154-26.548-17.584-42.117-14.104l-46.163,10.313c-4.614,1-9.415,0.713-13.877-0.83
				c-1.224-0.417-2.417-0.92-3.569-1.507c-0.176-0.09-0.358-0.168-0.532-0.262c-0.974-0.532-1.913-1.126-2.811-1.778
				c-0.28-0.201-0.577-0.376-0.849-0.588c-0.776-0.619-1.515-1.283-2.213-1.989c-0.29-0.285-0.609-0.534-0.886-0.834
				c-0.945-1.013-1.806-2.101-2.574-3.254l-0.004-0.004l-0.942-1.421c-0.909-1.392-1.679-2.87-2.297-4.413
				c-0.09-0.214-0.165-0.433-0.249-0.649c-0.606-1.575-1.065-3.203-1.37-4.863l-0.043-0.109c-0.275-1.497-0.419-3.015-0.432-4.536
				v-5.079c-0.022-6.96,2.731-13.642,7.65-18.567l0.813-0.813c7.203-7.257,11.616-16.822,12.462-27.013l8.066-97.253
				c18.933-2.129,31.612-2.252,32.133-2.252c174.292,0,220.346,138.354,220.346,211.513c0,1.328-0.142,2.605-0.177,3.922
				L476.889,235.971z"/>
		</g>
	</g>
</g>
<g>
</g>
<g>
</g>
<g>
</g>
<g>
</g>
<g>
</g>
<g>
</g>
<g>
</g>
<g>
</g>
<g>
</g>
<g>
</g>
<g>
</g>
<g>
</g>
<g>
</g>
<g>
</g>
<g>
</g>
</svg>
